<svg width="1200" height="630" viewBox="0 0 1200 630" fill="none" xmlns="http://www.w3.org/2000/svg">
  <rect width="1200" height="630" fill="#0b1020"/>
  <rect x="54" y="50" width="1092" height="530" rx="28" fill="#111827" stroke="#2dd4bf" stroke-width="2"/>
  <circle cx="172" cy="152" r="52" fill="#3b82f6"/>
  <circle cx="1028" cy="478" r="52" fill="#22c55e"/>
  <path d="M228 154H414" stroke="#93c5fd" stroke-width="8" stroke-linecap="round"/>
  <path d="M786 476H972" stroke="#86efac" stroke-width="8" stroke-linecap="round"/>
  <path d="M786 154H972" stroke="#2dd4bf" stroke-width="8" stroke-linecap="round" stroke-dasharray="20 18"/>
  <path d="M228 476H414" stroke="#2dd4bf" stroke-width="8" stroke-linecap="round" stroke-dasharray="20 18"/>
  <rect x="414" y="108" width="372" height="414" rx="24" fill="#0f172a" stroke="#38bdf8" stroke-width="3"/>
  <rect x="462" y="158" width="276" height="84" rx="14" fill="#1f2937" stroke="#2dd4bf" stroke-width="2"/>
  <rect x="462" y="274" width="276" height="84" rx="14" fill="#1f2937" stroke="#60a5fa" stroke-width="2"/>
  <rect x="462" y="390" width="276" height="84" rx="14" fill="#1f2937" stroke="#22c55e" stroke-width="2"/>
  <text x="600" y="205" fill="#f8fafc" font-family="Inter, Arial, sans-serif" font-size="36" font-weight="700" text-anchor="middle">Connect Edge</text>
  <text x="600" y="321" fill="#f8fafc" font-family="Inter, Arial, sans-serif" font-size="34" font-weight="700" text-anchor="middle">Gate</text>
  <text x="600" y="437" fill="#f8fafc" font-family="Inter, Arial, sans-serif" font-size="34" font-weight="700" text-anchor="middle">Geyserlite</text>
  <text x="172" y="144" fill="#f8fafc" font-family="Inter, Arial, sans-serif" font-size="32" font-weight="800" text-anchor="middle">Java</text>
  <text x="172" y="184" fill="#dbeafe" font-family="Inter, Arial, sans-serif" font-size="22" font-weight="600" text-anchor="middle">players</text>
  <text x="1028" y="470" fill="#f8fafc" font-family="Inter, Arial, sans-serif" font-size="30" font-weight="800" text-anchor="middle">Bedrock</text>
  <text x="1028" y="510" fill="#dcfce7" font-family="Inter, Arial, sans-serif" font-size="22" font-weight="600" text-anchor="middle">players</text>
  <text x="600" y="84" fill="#f8fafc" font-family="Inter, Arial, sans-serif" font-size="46" font-weight="800" text-anchor="middle">Managed Bedrock Support</text>
  <text x="600" y="562" fill="#cbd5e1" font-family="Inter, Arial, sans-serif" font-size="28" font-weight="600" text-anchor="middle">One endpoint for Java and Bedrock, powered by native GeyserMC</text>
</svg>
